<?xml version="1.0" encoding="UTF-8" ?>
<!DOCTYPE svg PUBLIC "-//W3C//DTD SVG 1.1//EN" "http://www.w3.org/Graphics/SVG/1.1/DTD/svg11.dtd">
<svg width="824pt" height="824pt" viewBox="0 0 824 824" version="1.1" xmlns="http://www.w3.org/2000/svg">
<g id="#17484dff">
<path fill="#17484d" opacity="1.00" d=" M 577.40 10.55 C 584.27 8.75 592.29 13.40 593.45 20.56 C 601.25 57.78 608.26 95.73 624.60 130.38 C 633.08 148.45 644.25 165.41 658.59 179.38 C 680.21 199.93 707.70 213.14 735.87 222.13 C 759.59 229.69 784.02 234.69 808.41 239.57 C 812.84 240.50 818.20 240.86 820.98 245.00 C 825.11 250.93 824.27 260.81 817.67 264.65 C 813.60 266.48 809.04 266.70 804.74 267.71 C 767.29 275.17 729.24 283.18 695.19 301.16 C 678.17 310.29 662.31 321.95 649.72 336.68 C 628.90 360.74 616.63 390.84 608.23 421.20 C 602.77 441.07 598.60 461.25 594.44 481.42 C 593.70 484.79 593.29 488.39 591.35 491.33 C 585.73 499.11 570.81 497.09 568.82 487.17 C 560.36 448.03 553.35 407.85 535.27 371.71 C 526.30 353.74 514.60 336.90 499.45 323.58 C 474.13 301.06 441.93 288.15 409.58 279.45 C 389.02 273.88 368.09 269.80 347.21 265.69 C 338.13 263.78 335.31 250.76 341.34 244.33 C 343.40 241.93 346.64 241.23 349.58 240.53 C 372.91 235.64 396.34 231.01 419.22 224.25 C 444.95 216.69 470.17 206.02 491.54 189.56 C 514.56 172.11 530.84 147.17 541.71 120.68 C 553.00 93.45 559.32 64.54 565.42 35.80 C 566.48 29.44 566.87 22.78 569.97 16.99 C 571.53 14.04 574.06 11.34 577.40 10.55 Z" />
<path fill="#17484d" opacity="1.00" d=" M 749.13 66.10 C 751.07 68.05 751.51 70.96 752.55 73.43 C 756.02 82.93 758.70 93.46 766.51 100.47 C 775.12 107.76 786.66 109.38 796.87 113.35 C 796.45 115.55 793.95 116.16 792.30 117.20 C 782.48 122.25 770.44 124.13 763.03 133.00 C 756.44 142.36 754.26 153.94 748.59 163.80 C 746.45 161.08 745.72 157.60 744.49 154.44 C 741.39 145.63 738.48 136.10 731.31 129.66 C 722.30 122.09 709.55 121.32 700.42 114.01 C 711.37 108.34 725.28 107.65 733.82 97.81 C 741.20 88.46 743.06 76.18 749.13 66.10 Z" />
<path fill="#17484d" opacity="1.00" d=" M 210.45 109.52 C 286.95 109.19 363.46 109.53 439.97 109.34 C 446.73 109.11 453.98 109.40 459.85 113.20 C 465.54 117.16 469.64 123.94 469.02 131.04 C 468.65 140.50 461.80 150.39 451.97 151.60 C 435.99 152.49 419.98 151.57 404.00 152.27 C 337.00 152.36 270.00 152.27 203.00 152.31 C 198.14 152.35 193.27 152.05 188.43 152.57 C 164.92 155.46 143.56 171.69 134.68 193.68 C 128.78 206.97 129.54 221.79 129.68 235.98 C 129.70 374.32 129.71 512.66 129.67 651.00 C 129.59 679.85 150.91 706.67 178.42 714.55 C 187.68 717.29 197.45 716.98 207.00 717.01 C 323.33 716.99 439.66 717.00 556.00 717.00 C 580.69 716.89 605.39 717.22 630.07 716.83 C 661.05 716.39 689.02 690.89 693.47 660.44 C 694.84 650.69 694.14 640.81 694.31 631.00 C 694.30 555.99 694.31 480.98 694.30 405.98 C 694.69 396.32 694.63 386.66 694.59 377.01 C 694.33 365.03 706.53 355.52 718.04 356.72 C 728.56 357.55 736.96 367.47 736.71 377.93 C 736.67 461.62 736.70 545.31 736.70 629.00 C 736.66 641.02 736.92 653.06 735.99 665.05 C 730.06 716.23 682.72 759.32 631.01 759.32 C 486.01 759.48 341.01 759.33 196.01 759.40 C 175.68 759.55 155.35 753.72 138.22 742.77 C 114.18 727.62 96.09 703.03 89.79 675.21 C 87.12 663.69 87.29 651.76 87.31 640.00 C 87.29 498.66 87.33 357.32 87.29 215.98 C 87.20 200.91 90.75 185.87 97.34 172.33 C 112.59 140.46 143.65 116.14 178.78 110.75 C 189.26 108.97 199.90 110.08 210.45 109.52 Z" />
<path fill="#17484d" opacity="1.00" d=" M 344.30 384.27 C 347.48 383.71 350.75 384.10 353.80 385.12 C 360.01 401.71 362.56 419.47 368.93 436.03 C 375.26 453.23 386.59 468.98 402.29 478.74 C 419.41 489.65 439.47 494.35 458.99 498.98 C 462.49 499.83 466.16 500.14 469.53 501.49 C 473.93 504.25 474.32 511.89 470.00 514.92 C 466.70 516.34 463.06 516.66 459.60 517.57 C 441.23 522.11 422.35 526.26 405.81 535.83 C 393.82 542.71 383.64 552.70 376.71 564.68 C 366.73 581.59 362.13 600.93 357.88 619.91 C 356.91 623.82 357.15 628.91 353.19 631.23 C 349.77 633.56 343.48 633.60 342.14 628.85 C 336.03 609.34 333.56 588.50 323.78 570.26 C 315.04 552.47 299.56 538.31 281.36 530.61 C 264.71 522.84 246.28 520.54 228.85 515.21 C 222.38 513.61 222.74 502.49 229.34 501.32 C 249.31 496.06 270.04 492.35 288.47 482.58 C 303.64 474.75 316.13 461.97 323.68 446.67 C 332.59 429.03 335.99 409.39 341.55 390.59 C 342.20 388.37 343.14 386.26 344.30 384.27 Z" />
</g>
</svg>
