<?xml version="1.0" encoding="UTF-8" ?>
<!DOCTYPE svg PUBLIC "-//W3C//DTD SVG 1.1//EN" "http://www.w3.org/Graphics/SVG/1.1/DTD/svg11.dtd">
<svg width="824pt" height="824pt" viewBox="0 0 824 824" version="1.1" xmlns="http://www.w3.org/2000/svg">
<g id="#ffffffff">
<path fill="#ffffff" opacity="1.00" d=" M 577.44 10.58 C 583.67 8.99 591.08 12.57 592.96 18.87 C 601.56 58.51 608.67 99.23 627.22 135.73 C 635.30 151.80 645.69 166.80 658.58 179.39 C 680.85 200.52 709.26 213.90 738.32 222.91 C 761.05 229.97 784.40 234.76 807.72 239.45 C 811.12 240.20 814.73 240.49 817.86 242.15 C 826.29 247.18 825.26 262.72 815.45 265.52 C 778.56 272.95 741.05 279.89 706.56 295.55 C 688.99 303.56 672.39 314.00 658.44 327.43 C 636.96 348.13 623.02 375.37 613.66 403.41 C 604.48 430.75 599.21 459.16 593.13 487.29 C 591.11 497.54 575.50 499.05 570.26 490.71 C 568.10 486.80 567.87 482.20 566.83 477.94 C 559.08 440.83 551.48 402.99 533.90 369.05 C 524.95 351.65 513.25 335.48 498.38 322.64 C 472.97 300.43 440.84 287.82 408.62 279.18 C 390.29 274.29 371.70 270.48 353.10 266.83 C 349.52 266.04 345.45 266.01 342.57 263.44 C 337.15 258.58 336.61 249.02 341.79 243.80 C 344.75 241.03 349.02 240.77 352.77 239.86 C 384.74 233.18 417.07 226.82 447.43 214.42 C 468.95 205.62 489.44 193.50 505.89 176.90 C 528.46 153.98 542.13 123.97 551.36 93.54 C 556.91 75.32 560.95 56.68 564.93 38.07 C 566.45 30.79 566.55 22.96 570.34 16.35 C 571.83 13.60 574.31 11.26 577.44 10.58 Z" />
<path fill="#ffffff" opacity="1.00" d=" M 749.18 65.90 C 755.06 76.61 756.18 89.91 764.99 99.01 C 773.54 107.61 786.17 109.08 796.97 113.41 C 796.72 114.29 796.21 114.96 795.43 115.40 C 785.02 121.96 771.27 123.15 763.03 133.02 C 756.40 142.39 754.27 154.04 748.52 163.91 C 742.93 153.69 741.73 141.20 733.79 132.22 C 725.12 122.21 710.40 122.02 700.36 114.03 C 711.35 108.39 725.29 107.66 733.81 97.78 C 741.23 88.40 743.17 76.09 749.18 65.90 Z" />
<path fill="#ffffff" opacity="1.00" d=" M 210.45 109.60 C 286.96 109.32 363.47 109.66 439.98 109.43 C 448.67 108.86 458.84 110.02 464.47 117.52 C 473.07 127.22 468.82 143.89 457.73 149.78 C 453.89 152.04 449.31 151.74 445.03 151.91 C 431.35 152.20 417.67 151.73 403.99 152.24 C 333.99 152.27 263.99 152.24 193.99 152.25 C 164.61 152.82 137.53 175.46 131.34 204.11 C 129.00 215.58 129.45 227.37 129.75 239.00 C 129.75 373.67 129.75 508.33 129.75 643.00 C 129.78 649.10 129.43 655.27 130.54 661.31 C 134.99 686.94 155.55 709.00 180.84 715.17 C 188.72 717.18 196.92 716.98 205.00 717.00 C 324.33 716.99 443.67 717.00 563.00 717.00 C 585.35 716.90 607.71 717.21 630.06 716.84 C 663.95 716.41 694.09 685.82 694.20 651.96 C 694.32 596.64 694.21 541.32 694.25 486.00 C 694.33 453.33 694.03 420.66 694.50 388.00 C 694.76 381.72 693.46 375.04 696.23 369.15 C 699.95 361.46 708.44 356.27 717.01 356.70 C 722.08 356.68 726.77 359.24 730.43 362.58 C 734.85 366.75 736.68 373.00 736.75 378.93 C 736.75 468.30 736.75 557.67 736.75 647.03 C 736.65 655.66 736.58 664.37 734.76 672.86 C 725.46 718.98 683.15 756.61 635.97 759.18 C 587.32 759.82 538.66 759.36 490.00 759.50 C 400.00 759.50 310.00 759.50 220.00 759.50 C 203.18 759.31 186.05 760.58 169.60 756.23 C 132.17 747.06 100.82 716.58 90.84 679.32 C 87.61 667.85 87.14 655.84 87.24 644.00 C 87.25 504.33 87.25 364.67 87.25 225.01 C 87.19 214.78 87.30 204.44 89.65 194.43 C 99.04 152.18 135.82 117.42 178.64 110.79 C 189.16 109.01 199.85 110.13 210.45 109.60 Z" />
<path fill="#ffffff" opacity="1.00" d=" M 344.35 384.27 C 347.48 383.65 350.77 384.23 353.79 385.15 C 358.70 397.68 360.95 411.08 364.91 423.93 C 368.93 437.88 374.67 451.66 384.23 462.77 C 394.64 475.86 409.75 484.27 425.33 489.72 C 439.02 494.53 453.21 497.73 467.38 500.80 C 473.74 501.76 474.99 511.66 469.90 514.95 C 466.95 516.26 463.67 516.51 460.57 517.36 C 442.33 521.80 423.64 525.91 407.07 535.10 C 394.96 541.77 384.60 551.58 377.47 563.44 C 367.11 580.34 362.39 599.87 358.04 619.00 C 357.20 622.23 357.23 625.76 355.67 628.77 C 353.54 632.00 349.19 633.59 345.49 632.46 C 342.70 631.56 341.91 628.44 341.17 625.96 C 336.07 607.47 333.03 588.14 324.13 570.93 C 315.82 553.79 301.37 539.79 284.07 531.84 C 267.90 523.89 249.98 520.98 232.71 516.39 C 230.49 515.70 228.04 515.30 226.21 513.79 C 222.72 510.13 223.74 502.42 229.25 501.36 C 247.87 496.47 267.06 492.89 284.56 484.54 C 298.48 478.11 310.64 467.88 318.95 454.96 C 330.00 437.85 334.18 417.62 339.42 398.24 C 340.80 393.51 341.60 388.46 344.35 384.27 Z" />
</g>
</svg>
